{"accessors":[{"bufferView":0,"byteOffset":0,"componentType":5126,"count":8,"max":[0.5,0.20000000298023224,0.10000000149011612],"min":[-0.5,-0.20000000298023224,-0.10000000149011612],"type":"VEC3"},{"bufferView":1,"byteOffset":0,"componentType":5126,"count":8,"type":"VEC3"},{"bufferView":2,"byteOffset":0,"componentType":5126,"count":8,"normalized":false,"type":"VEC2"},{"bufferView":3,"byteOffset":0,"componentType":5125,"count":36,"type":"SCALAR"},{"bufferView":4,"byteOffset":0,"componentType":5126,"count":400,"max":[0.586898684501648,0.586898684501648,0.029999999329447746],"min":[-0.02121320366859436,-0.02121320366859436,-0.029999999329447746],"type":"VEC3"},{"bufferView":5,"byteOffset":0,"componentType":5126,"count":400,"type":"VEC3"},{"bufferView":6,"byteOffset":0,"componentType":5126,"count":400,"normalized":false,"type":"VEC2"},{"bufferView":7,"byteOffset":0,"componentType":5125,"count":1188,"type":"SCALAR"},{"bufferView":8,"byteOffset":0,"componentType":5126,"count":12,"max":[0.8656854629516602,0.8254930973052979,0.05000000074505806],"min":[0.26568543910980225,0.30587783455848694,0.05000000074505806],"type":"VEC3"},{"bufferView":9,"byteOffset":0,"componentType":5125,"count":18,"type":"SCALAR"},{"bufferView":10,"byteOffset":0,"componentType":5126,"count":400,"max":[0.02121320366859436,0.586898684501648,0.029999999329447746],"min":[-0.586898684501648,-0.02121320366859436,-0.029999999329447746],"type":"VEC3"},{"bufferView":11,"byteOffset":0,"componentType":5126,"count":400,"type":"VEC3"},{"bufferView":12,"byteOffset":0,"componentType":5126,"count":400,"normalized":false,"type":"VEC2"},{"bufferView":13,"byteOffset":0,"componentType":5125,"count":1188,"type":"SCALAR"},{"bufferView":14,"byteOffset":0,"componentType":5126,"count":12,"max":[-0.26568543910980225,0.8254930973052979,0.05000000074505806],"min":[-0.8656854629516602,0.30587783455848694,0.05000000074505806],"type":"VEC3"},{"bufferView":15,"byteOffset":0,"componentType":5125,"count":18,"type":"SCALAR"},{"bufferView":16,"byteOffset":0,"componentType":5126,"count":400,"max":[0.02121320366859436,0.02121320366859436,0.029999999329447746],"min":[-0.586898684501648,-0.586898684501648,-0.029999999329447746],"type":"VEC3"},{"bufferView":17,"byteOffset":0,"componentType":5126,"count":400,"type":"VEC3"},{"bufferView":18,"byteOffset":0,"componentType":5126,"count":400,"normalized":false,"type":"VEC2"},{"bufferView":19,"byteOffset":0,"componentType":5125,"count":1188,"type":"SCALAR"},{"bufferView":20,"byteOffset":0,"componentType":5126,"count":12,"max":[-0.26568543910980225,-0.30587783455848694,0.05000000074505806],"min":[-0.8656854629516602,-0.8254930973052979,0.05000000074505806],"type":"VEC3"},{"bufferView":21,"byteOffset":0,"componentType":5125,"count":18,"type":"SCALAR"},{"bufferView":22,"byteOffset":0,"componentType":5126,"count":400,"max":[0.586898684501648,0.02121320366859436,0.029999999329447746],"min":[-0.02121320366859436,-0.586898684501648,-0.029999999329447746],"type":"VEC3"},{"bufferView":23,"byteOffset":0,"componentType":5126,"count":400,"type":"VEC3"},{"bufferView":24,"byteOffset":0,"componentType":5126,"count":400,"normalized":false,"type":"VEC2"},{"bufferView":25,"byteOffset":0,"componentType":5125,"count":1188,"type":"SCALAR"},{"bufferView":26,"byteOffset":0,"componentType":5126,"count":12,"max":[0.8656854629516602,-0.30587783455848694,0.05000000074505806],"min":[0.26568543910980225,-0.8254930973052979,0.05000000074505806],"type":"VEC3"},{"bufferView":27,"byteOffset":0,"componentType":5125,"count":18,"type":"SCALAR"}],"asset":{"generator":"VTK","version":"2.0"},"bufferViews":[{"buffer":0,"byteLength":96,"byteOffset":0,"target":34962},{"buffer":1,"byteLength":96,"byteOffset":0,"target":34962},{"buffer":2,"byteLength":64,"byteOffset":0,"target":34962},{"buffer":3,"byteLength":144,"byteOffset":0,"target":34963},{"buffer":4,"byteLength":4800,"byteOffset":0,"target":34962},{"buffer":5,"byteLength":4800,"byteOffset":0,"target":34962},{"buffer":6,"byteLength":3200,"byteOffset":0,"target":34962},{"buffer":7,"byteLength":4752,"byteOffset":0,"target":34963},{"buffer":8,"byteLength":144,"byteOffset":0,"target":34962},{"buffer":9,"byteLength":72,"byteOffset":0,"target":34963},{"buffer":10,"byteLength":4800,"byteOffset":0,"target":34962},{"buffer":11,"byteLength":4800,"byteOffset":0,"target":34962},{"buffer":12,"byteLength":3200,"byteOffset":0,"target":34962},{"buffer":13,"byteLength":4752,"byteOffset":0,"target":34963},{"buffer":14,"byteLength":144,"byteOffset":0,"target":34962},{"buffer":15,"byteLength":72,"byteOffset":0,"target":34963},{"buffer":16,"byteLength":4800,"byteOffset":0,"target":34962},{"buffer":17,"byteLength":4800,"byteOffset":0,"target":34962},{"buffer":18,"byteLength":3200,"byteOffset":0,"target":34962},{"buffer":19,"byteLength":4752,"byteOffset":0,"target":34963},{"buffer":20,"byteLength":144,"byteOffset":0,"target":34962},{"buffer":21,"byteLength":72,"byteOffset":0,"target":34963},{"buffer":22,"byteLength":4800,"byteOffset":0,"target":34962},{"buffer":23,"byteLength":4800,"byteOffset":0,"target":34962},{"buffer":24,"byteLength":3200,"byteOffset":0,"target":34962},{"buffer":25,"byteLength":4752,"byteOffset":0,"target":34963},{"buffer":26,"byteLength":144,"byteOffset":0,"target":34962},{"buffer":27,"byteLength":72,"byteOffset":0,"target":34963}],"buffers":[{"byteLength":96,"uri":"data:application/octet-stream;base64,"},{"byteLength":96,"uri":"data:application/octet-stream;base64,"},{"byteLength":64,"uri":"data:application/octet-stream;base64,"},{"byteLength":144,"uri":"data:application/octet-stream;base64,"},{"byteLength":4800,"uri":"data:application/octet-stream;base64,"},{"byteLength":4800,"uri":"data:application/octet-stream;base64,"},{"byteLength":3200,"uri":"data:application/octet-stream;base64,"},{"byteLength":4752,"uri":"data:application/octet-stream;base64,"},{"byteLength":144,"uri":"data:application/octet-stream;base64,"},{"byteLength":72,"uri":"data:application/octet-stream;base64,"},{"byteLength":4800,"uri":"data:application/octet-stream;base64,"},{"byteLength":4800,"uri":"data:application/octet-stream;base64,"},{"byteLength":3200,"uri":"data:application/octet-stream;base64,"},{"byteLength":4752,"uri":"data:application/octet-stream;base64,"},{"byteLength":144,"uri":"data:application/octet-stream;base64,"},{"byteLength":72,"uri":"data:application/octet-stream;base64,"},{"byteLength":4800,"uri":"data:application/octet-stream;base64,"},{"byteLength":4800,"uri":"data:application/octet-stream;base64,"},{"byteLength":3200,"uri":"data:application/octet-stream;base64,"},{"byteLength":4752,"uri":"data:application/octet-stream;base64,"},{"byteLength":144,"uri":"data:application/octet-stream;base64,"},{"byteLength":72,"uri":"data:application/octet-stream;base64,"},{"byteLength":4800,"uri":"data:application/octet-stream;base64,"},{"byteLength":4800,"uri":"data:application/octet-stream;base64,"},{"byteLength":3200,"uri":"data:application/octet-stream;base64,"},{"byteLength":4752,"uri":"data:application/octet-stream;base64,"},{"byteLength":144,"uri":"data:application/octet-stream;base64,"},{"byteLength":72,"uri":"data:application/octet-stream;base64,"}],"cameras":[{"perspective":{"aspectRatio":1.3333333333333333,"yfov":0.5235987755982988,"zfar":1000.01,"znear":0.01},"type":"perspective"}],"materials":[{"pbrMetallicRoughness":{"baseColorFactor":[0.5019607843137255,0.5019607843137255,0.5019607843137255,1.0],"metallicFactor":0.0,"roughnessFactor":1.0}},{"pbrMetallicRoughness":{"baseColorFactor":[0.0,0.0,0.0,1.0],"metallicFactor":0.0,"roughnessFactor":1.0}},{"pbrMetallicRoughness":{"baseColorFactor":[0.0,0.0,1.0,1.0],"metallicFactor":0.0,"roughnessFactor":1.0}},{"pbrMetallicRoughness":{"baseColorFactor":[0.0,0.0,0.0,1.0],"metallicFactor":0.0,"roughnessFactor":1.0}},{"pbrMetallicRoughness":{"baseColorFactor":[0.0,0.0,1.0,1.0],"metallicFactor":0.0,"roughnessFactor":1.0}},{"pbrMetallicRoughness":{"baseColorFactor":[0.0,0.0,0.0,1.0],"metallicFactor":0.0,"roughnessFactor":1.0}},{"pbrMetallicRoughness":{"baseColorFactor":[0.0,0.0,1.0,1.0],"metallicFactor":0.0,"roughnessFactor":1.0}},{"pbrMetallicRoughness":{"baseColorFactor":[0.0,0.0,0.0,1.0],"metallicFactor":0.0,"roughnessFactor":1.0}},{"pbrMetallicRoughness":{"baseColorFactor":[0.0,0.0,1.0,1.0],"metallicFactor":0.0,"roughnessFactor":1.0}}],"meshes":[{"name":"mesh0","primitives":[{"attributes":{"NORMAL":1,"POSITION":0,"TEXCOORD_0":2},"indices":3,"material":0,"mode":4}]},{"name":"mesh1","primitives":[{"attributes":{"NORMAL":5,"POSITION":4,"TEXCOORD_0":6},"indices":7,"material":1,"mode":4}]},{"name":"mesh2","primitives":[{"attributes":{"POSITION":8},"indices":9,"material":2,"mode":4}]},{"name":"mesh3","primitives":[{"attributes":{"NORMAL":11,"POSITION":10,"TEXCOORD_0":12},"indices":13,"material":3,"mode":4}]},{"name":"mesh4","primitives":[{"attributes":{"POSITION":14},"indices":15,"material":4,"mode":4}]},{"name":"mesh5","primitives":[{"attributes":{"NORMAL":17,"POSITION":16,"TEXCOORD_0":18},"indices":19,"material":5,"mode":4}]},{"name":"mesh6","primitives":[{"attributes":{"POSITION":20},"indices":21,"material":6,"mode":4}]},{"name":"mesh7","primitives":[{"attributes":{"NORMAL":23,"POSITION":22,"TEXCOORD_0":24},"indices":25,"material":7,"mode":4}]},{"name":"mesh8","primitives":[{"attributes":{"POSITION":26},"indices":27,"material":8,"mode":4}]}],"nodes":[{"matrix":[2.220446049250314e-16,-3.330669073875469e-16,1.0000000000000002,0.0,1.0,2.220446049250313e-16,-2.220446049250313e-16,0.0,-2.2204460492503128e-16,1.0000000000000002,3.3306690738754696e-16,0.0,0.0,0.0,0.0,1.0],"mesh":0,"name":"mesh0"},{"matrix":[2.220446049250314e-16,-3.330669073875469e-16,1.0000000000000002,0.0,1.0,2.220446049250313e-16,-2.220446049250313e-16,0.0,-2.2204460492503128e-16,1.0000000000000002,3.3306690738754696e-16,0.0,0.0,0.0,0.0,1.0],"mesh":1,"name":"mesh1"},{"matrix":[2.220446049250314e-16,-3.330669073875469e-16,1.0000000000000002,0.0,1.0,2.220446049250313e-16,-2.220446049250313e-16,0.0,-2.2204460492503128e-16,1.0000000000000002,3.3306690738754696e-16,0.0,0.0,0.0,0.0,1.0],"mesh":2,"name":"mesh2"},{"matrix":[2.220446049250314e-16,-3.330669073875469e-16,1.0000000000000002,0.0,1.0,2.220446049250313e-16,-2.220446049250313e-16,0.0,-2.2204460492503128e-16,1.0000000000000002,3.3306690738754696e-16,0.0,0.0,0.0,0.0,1.0],"mesh":3,"name":"mesh3"},{"matrix":[2.220446049250314e-16,-3.330669073875469e-16,1.0000000000000002,0.0,1.0,2.220446049250313e-16,-2.220446049250313e-16,0.0,-2.2204460492503128e-16,1.0000000000000002,3.3306690738754696e-16,0.0,0.0,0.0,0.0,1.0],"mesh":4,"name":"mesh4"},{"matrix":[2.220446049250314e-16,-3.330669073875469e-16,1.0000000000000002,0.0,1.0,2.220446049250313e-16,-2.220446049250313e-16,0.0,-2.2204460492503128e-16,1.0000000000000002,3.3306690738754696e-16,0.0,0.0,0.0,0.0,1.0],"mesh":5,"name":"mesh5"},{"matrix":[2.220446049250314e-16,-3.330669073875469e-16,1.0000000000000002,0.0,1.0,2.220446049250313e-16,-2.220446049250313e-16,0.0,-2.2204460492503128e-16,1.0000000000000002,3.3306690738754696e-16,0.0,0.0,0.0,0.0,1.0],"mesh":6,"name":"mesh6"},{"matrix":[2.220446049250314e-16,-3.330669073875469e-16,1.0000000000000002,0.0,1.0,2.220446049250313e-16,-2.220446049250313e-16,0.0,-2.2204460492503128e-16,1.0000000000000002,3.3306690738754696e-16,0.0,0.0,0.0,0.0,1.0],"mesh":7,"name":"mesh7"},{"matrix":[2.220446049250314e-16,-3.330669073875469e-16,1.0000000000000002,0.0,1.0,2.220446049250313e-16,-2.220446049250313e-16,0.0,-2.2204460492503128e-16,1.0000000000000002,3.3306690738754696e-16,0.0,0.0,0.0,0.0,1.0],"mesh":8,"name":"mesh8"},{"camera":0,"matrix":[1.0,-0.0,0.0,-0.0,-0.0,1.0,-0.0,0.0,0.0,-0.0,1.0,-0.0,-0.0,0.0,1.0,1.0],"name":"Camera Node"},{"children":[0,1,2,3,4,5,6,7,8,9],"name":"Renderer Node"}],"scene":0,"scenes":[{"name":"Layer 0","nodes":[10]}]}